<svg xmlns="http://www.w3.org/2000/svg" xmlns:xlink="http://www.w3.org/1999/xlink" width="11" height="7" viewBox="0 0 11 7"><defs><path id="vzxya" d="M1516.7 935.422h8.558l-1.86-1.887c-.237-.2-.237-.4 0-.602.2-.236.401-.236.602 0l2.625 2.625c.036.019.073.065.11.137a.389.389 0 0 1 .027.164c0 .073-.01.128-.028.164-.036.074-.073.12-.109.137l-2.625 2.625c-.2.237-.401.237-.602 0-.237-.2-.237-.4 0-.602l1.86-1.886h-8.559c-.292 0-.437-.146-.437-.438 0-.291.145-.437.437-.437z"/></defs><g><g transform="translate(-1516 -932)"><use fill="#feb960" xlink:href="#vzxya"/></g></g></svg>