<svg xmlns="http://www.w3.org/2000/svg" xmlns:xlink="http://www.w3.org/1999/xlink" width="19" height="20" viewBox="0 0 19 20"><defs><path id="y082a" d="M453.016 1440.207a1.2 1.2 0 0 1-.372-.879v-15a1.2 1.2 0 0 1 .372-.879 1.2 1.2 0 0 1 .879-.37h12.5c.338 0 .63.123.878.37.248.248.372.541.372.88v1.25h1.25c.338 0 .63.123.878.37.248.248.372.54.372.88v15c0 .337-.124.63-.372.878-.247.247-.54.371-.878.371h-12.5c-.34 0-.632-.124-.88-.371a1.2 1.2 0 0 1-.37-.879v-1.25h-1.25a1.2 1.2 0 0 1-.88-.371zm13.379-15.879h-12.5v15h12.5zm1.25 2.5v12.5c0 .34-.124.632-.372.879-.247.248-.54.371-.878.371h-10v1.25h12.5v-15zm-3.125 0c.181 0 .332.059.449.176a.608.608 0 0 1 .176.449.609.609 0 0 1-.176.45.61.61 0 0 1-.45.175h-6.25a.608.608 0 0 1-.449-.176.609.609 0 0 1-.175-.449c0-.182.058-.332.175-.449a.607.607 0 0 1 .45-.176zm-9.2 4.824a.607.607 0 0 1-.175-.449.61.61 0 0 1 .175-.45.608.608 0 0 1 .45-.175h8.75a.61.61 0 0 1 .449.176.61.61 0 0 1 .176.45.607.607 0 0 1-.176.448.608.608 0 0 1-.45.176h-8.75a.607.607 0 0 1-.449-.176zm0 2.5a.609.609 0 0 1-.175-.449c0-.182.058-.332.175-.449a.607.607 0 0 1 .45-.176h8.75c.181 0 .332.059.449.176a.608.608 0 0 1 .176.449.609.609 0 0 1-.176.45.61.61 0 0 1-.45.175h-8.75a.608.608 0 0 1-.449-.176zm0 2.5a.608.608 0 0 1-.175-.449.61.61 0 0 1 .175-.45.608.608 0 0 1 .45-.175h8.75a.61.61 0 0 1 .449.176.61.61 0 0 1 .176.45.608.608 0 0 1-.176.448.608.608 0 0 1-.45.176h-8.75a.607.607 0 0 1-.449-.176z"/></defs><g><g transform="translate(-452 -1423)"><use fill="#feb960" xlink:href="#y082a"/></g></g></svg>