<svg xmlns="http://www.w3.org/2000/svg" xmlns:xlink="http://www.w3.org/1999/xlink" width="21" height="20" viewBox="0 0 21 20"><defs><path id="e10za" d="M847.84 1431.79l2.265-2.267 6.407 6.446 1.133 3.36-3.36-1.134zm-2.969-2.97a1.543 1.543 0 0 1-.469-1.133c0-.442.157-.82.47-1.132.312-.313.689-.469 1.132-.469.442 0 .82.156 1.133.469l1.64 1.68-2.226 2.226zm16.152-5.37c.248.247.371.54.371.878v17.5c0 .338-.123.631-.37.879-.248.247-.541.371-.88.371h-17.5c-.338 0-.631-.124-.878-.371a1.2 1.2 0 0 1-.371-.879v-17.5a1.2 1.2 0 0 1 .37-.879 1.2 1.2 0 0 1 .88-.37h17.5c.338 0 .63.123.878.37zm-.878.878h-17.5v17.5h17.5z"/></defs><g><g transform="translate(-841 -1423)"><use fill="#feb960" xlink:href="#e10za"/></g></g></svg>